<svg width="830" height="135" viewBox="0 0 830 135" fill="none" xmlns="http://www.w3.org/2000/svg">
<path d="M160.4 46.06C150.67 49.44 140.75 53.31 130.88 57.73L127.35 47.75L124.85 40.7L110.44 0H145.31L155.13 29.99L157.46 37.09L160.4 46.06Z" fill="#003F88"/>
<path d="M48.76 91.79L34.3 134.76H0C0 134.76 17.21 114.81 48.76 91.79Z" fill="#F9A602"/>
<path d="M135.25 134.76H100.57L86.1099 91.79L83.5899 84.31L79.3299 71.64L76.8899 64.4L67.4299 36.29L52.7999 79.75C31.6899 94.31 15.9699 108.19 6.16992 117.64L48.6499 0.0100098H86.5799L104.52 49.69L107.07 56.76L110.94 67.48L113.53 74.66L135.25 134.76Z" fill="#F9A602"/>
<path d="M261.98 23.48C261.98 23.48 214.23 27.34 160.4 46.07C150.67 49.45 140.75 53.32 130.88 57.74C124.2 60.73 117.53 63.97 110.96 67.49C101.57 72.52 92.37 78.11 83.6 84.31C64.33 97.94 47.1 114.55 34.29 134.77H0C0.27 134.46 17.46 114.64 48.76 91.8C57.8 85.2 68.01 78.3501 79.34 71.6501C87.96 66.5501 97.22 61.5301 107.09 56.7701C113.58 53.6401 120.34 50.6201 127.35 47.7701C136.92 43.8701 146.96 40.28 157.47 37.11C188.5 27.73 223.53 22.1 261.98 23.48Z" fill="#F9A602"/>
<path d="M261.98 28.5701C261.98 28.5701 260.24 29.4801 257.38 31.4701C248.15 37.8701 227.22 55.45 215.06 89.79L199.14 134.77H158.14L133.39 64.8501C143.41 60.3301 153.31 56.4601 162.72 53.1801L178.64 101.75C181.33 84.3101 189.28 68.6201 200.85 56.3801C209.77 46.9401 220.85 39.5601 233.36 35.0101C233.36 35.0101 233.36 35.0101 233.37 35.0101C237.09 33.6601 240.93 32.5601 244.88 31.7301C252.81 30.0501 259.21 28.8301 261.98 28.5701Z" fill="#003F88"/>
<path d="M325.6 92.27H301.67L300.24 75.9799H281.32L274.06 92.27H264.14L294.3 27.21H318.53L325.6 92.27ZM284.7 68.4999H299.53L297.18 40.6299L284.7 68.4999Z" fill="#003F88"/>
<path d="M356.27 69.0099C355.93 70.5099 355.66 71.81 355.45 72.9C355.25 73.99 355.14 75.02 355.14 75.97C355.14 78.36 355.97 80.27 357.65 81.71C359.32 83.14 361.79 83.8599 365.06 83.8599C367.45 83.8599 369.41 83.4499 370.94 82.6299C372.47 81.8099 373.73 80.72 374.72 79.35C375.71 77.98 376.49 76.41 377.07 74.64C377.65 72.86 378.14 70.9899 378.55 68.9999L387.24 27.2H396.54L387.64 69.21C386.96 72.49 385.97 75.5599 384.67 78.4299C383.37 81.2999 381.52 83.8299 379.1 86.0099C376.68 88.1999 373.56 89.9199 369.74 91.1799C365.92 92.4399 361.18 93.08 355.53 93.08C347.69 93.08 341.89 91.7999 338.15 89.2399C334.4 86.6799 332.53 82.73 332.53 77.41C332.53 75.02 332.84 71.9799 333.45 68.2899C334.06 64.5999 334.85 60.6099 335.8 56.2999L342.04 27.2H365.25L356.27 69.0099Z" fill="#003F88"/>
<path d="M455.66 34.9999H439.2L427.03 92.27H404.94L417.11 34.9999H400.85L402.69 27.21H457.4L455.66 34.9999Z" fill="#003F88"/>
<path d="M490.32 26.1899C496.18 26.1899 500.94 26.9399 504.58 28.4399C508.23 29.9399 511.11 32.2699 513.22 35.4099C514.58 37.5299 515.64 39.92 516.39 42.58C517.14 45.24 517.51 48.3199 517.51 51.7999C517.51 54.8099 517.24 57.8099 516.69 60.8199C516.14 63.8299 515.38 66.7099 514.39 69.4799C513.4 72.2499 512.21 74.84 510.81 77.27C509.41 79.7 507.86 81.8299 506.16 83.6699C502.96 87.1499 499.26 89.5999 495.07 90.9999C490.88 92.3999 485.71 93.1 479.58 93.1C473.65 93.1 468.88 92.49 465.26 91.2599C461.65 90.0299 458.78 88.0499 456.67 85.3199C455.17 83.4099 453.99 80.9799 453.14 78.0499C452.29 75.1099 451.86 71.4299 451.86 66.9799C451.86 59.3999 453.21 52.62 455.9 46.64C458.59 40.66 462.43 35.93 467.4 32.45C470.4 30.33 473.74 28.76 477.42 27.74C481.12 26.7 485.42 26.1899 490.32 26.1899ZM478.77 85.9199C480.34 85.9199 481.82 85.2199 483.22 83.8199C484.62 82.4199 485.91 80.5399 487.11 78.1799C488.3 75.8199 489.39 73.14 490.38 70.14C491.37 67.13 492.2 64.0299 492.89 60.8199C493.57 57.6099 494.1 54.4199 494.47 51.2399C494.84 48.0599 495.03 45.18 495.03 42.58C495.03 39.03 494.67 36.5899 493.96 35.2499C493.24 33.9199 492.2 33.2499 490.84 33.2499C489.27 33.2499 487.77 33.93 486.34 35.3C484.91 36.67 483.56 38.49 482.3 40.78C481.04 43.07 479.91 45.6999 478.93 48.6699C477.94 51.6399 477.09 54.7 476.37 57.84C475.65 60.98 475.11 64.09 474.73 67.16C474.35 70.23 474.17 73.07 474.17 75.66C474.17 79.55 474.59 82.2299 475.45 83.7C476.3 85.19 477.41 85.9199 478.77 85.9199Z" fill="#003F88"/>
<path d="M524.78 27.21H548.09L551.57 71.27L572.84 27.21H582.96L552.7 92.27H528.57L524.78 27.21Z" fill="#F9A602"/>
<path d="M589.61 27.21H632.66L631.02 34.9999H610.16L605.86 54.77H623.35L621.71 62.45H604.23L599.53 84.3799H620.39L618.86 92.27H575.81L589.61 27.21Z" fill="#F9A602"/>
<path d="M681.74 92.27H657.81L646.46 45.2399L636.44 92.27H627.24L641.04 27.21H665.48L676.22 74.85L686.34 27.21H695.75L681.74 92.27Z" fill="#F9A602"/>
<path d="M693.09 92.27L706.89 27.21H734.4C738.63 27.21 742.32 27.64 745.49 28.49C748.66 29.34 751.28 30.76 753.36 32.74C755.44 34.72 757.01 37.32 758.06 40.53C759.12 43.74 759.64 47.6699 759.64 52.3099C759.64 57.2999 759.01 62.18 757.75 66.96C756.49 71.74 754.39 76.01 751.46 79.77C748.53 83.53 744.69 86.55 739.96 88.84C735.22 91.13 729.38 92.27 722.42 92.27H693.09ZM721.1 85.1C723.35 85.1 725.34 84.16 727.08 82.28C728.82 80.4 730.32 78.0099 731.58 75.1099C732.84 72.2099 733.9 68.9999 734.75 65.4799C735.6 61.9599 736.28 58.5599 736.79 55.2899C737.3 52.0099 737.68 49.0799 737.92 46.4799C738.16 43.8899 738.28 42.04 738.28 40.95C738.28 38.83 737.85 37.1799 737 35.9799C736.15 34.7899 734.67 34.1899 732.55 34.1899H727.64L716.7 85.1099H721.1V85.1Z" fill="#F9A602"/>
<path d="M802.8 26.1899C808.66 26.1899 813.42 26.9399 817.06 28.4399C820.71 29.9399 823.59 32.2699 825.7 35.4099C827.06 37.5299 828.12 39.92 828.87 42.58C829.62 45.24 829.99 48.3199 829.99 51.7999C829.99 54.8099 829.72 57.8099 829.17 60.8199C828.62 63.8299 827.86 66.7099 826.87 69.4799C825.88 72.2499 824.69 74.84 823.29 77.27C821.89 79.7 820.34 81.8299 818.64 83.6699C815.44 87.1499 811.74 89.5999 807.55 90.9999C803.36 92.3999 798.19 93.1 792.06 93.1C786.13 93.1 781.36 92.49 777.74 91.2599C774.13 90.0299 771.26 88.0499 769.15 85.3199C767.65 83.4099 766.47 80.9799 765.62 78.0499C764.77 75.1099 764.34 71.4299 764.34 66.9799C764.34 59.3999 765.69 52.62 768.38 46.64C771.07 40.66 774.91 35.93 779.88 32.45C782.88 30.33 786.22 28.76 789.9 27.74C793.6 26.7 797.89 26.1899 802.8 26.1899ZM791.25 85.9199C792.82 85.9199 794.3 85.2199 795.7 83.8199C797.1 82.4199 798.39 80.5399 799.59 78.1799C800.78 75.8199 801.87 73.14 802.86 70.14C803.85 67.13 804.68 64.0299 805.37 60.8199C806.05 57.6099 806.58 54.4199 806.95 51.2399C807.32 48.0599 807.51 45.18 807.51 42.58C807.51 39.03 807.15 36.5899 806.44 35.2499C805.72 33.9199 804.68 33.2499 803.32 33.2499C801.75 33.2499 800.25 33.93 798.82 35.3C797.39 36.67 796.04 38.49 794.78 40.78C793.52 43.07 792.39 45.6999 791.41 48.6699C790.42 51.6399 789.57 54.7 788.85 57.84C788.13 60.98 787.59 64.09 787.21 67.16C786.83 70.23 786.65 73.07 786.65 75.66C786.65 79.55 787.07 82.2299 787.93 83.7C788.78 85.19 789.88 85.9199 791.25 85.9199Z" fill="#F9A602"/>
<path d="M268.04 110.81V115H273.77V117.47H268.04V121.82H274.45V124.41H264.81V108.24H274.45V110.81H268.04Z" fill="#003F88"/>
<path d="M282.36 108.25V124.42H279.13V108.25H282.36Z" fill="#003F88"/>
<path d="M301.27 124.42H298.04L290.8 113.43V124.42H287.57V108.25H290.8L298.04 119.34V108.25H301.27V124.42Z" fill="#003F88"/>
<path d="M316.53 108.25V110.82H309.73V115.15H315.18V117.62H309.73V124.42H306.5V108.25H316.53Z" fill="#003F88"/>
<path d="M330.84 121.16H324.36L323.21 124.41H319.8L325.76 108.42H329.45L335.38 124.41H331.97L330.84 121.16ZM329.97 118.71L327.59 111.88L325.21 118.71H329.97Z" fill="#003F88"/>
<path d="M351.73 109.64C353.06 110.68 353.94 112.09 354.36 113.88H350.97C350.62 113.01 350.07 112.32 349.33 111.82C348.59 111.32 347.7 111.06 346.66 111.06C345.8 111.06 345.03 111.27 344.35 111.7C343.66 112.13 343.13 112.74 342.75 113.53C342.37 114.32 342.18 115.26 342.18 116.32C342.18 117.37 342.37 118.3 342.75 119.09C343.13 119.88 343.67 120.5 344.35 120.92C345.04 121.35 345.81 121.56 346.66 121.56C347.7 121.56 348.59 121.31 349.33 120.8C350.07 120.3 350.62 119.61 350.97 118.74H354.36C353.93 120.53 353.05 121.94 351.73 122.98C350.4 124.02 348.73 124.54 346.71 124.54C345.17 124.54 343.8 124.19 342.62 123.5C341.44 122.81 340.52 121.83 339.87 120.58C339.22 119.33 338.9 117.91 338.9 116.32C338.9 114.72 339.22 113.29 339.87 112.04C340.52 110.79 341.43 109.81 342.61 109.12C343.79 108.43 345.15 108.08 346.71 108.08C348.73 108.09 350.4 108.61 351.73 109.64Z" fill="#003F88"/>
<path d="M372.48 108.25V124.42H369.23V117.39H362.31V124.42H359.08V108.25H362.31V114.8H369.23V108.25H372.48Z" fill="#003F88"/>
<path d="M388.22 108.25V124.42H384.99V108.25H388.22Z" fill="#003F88"/>
<path d="M407.14 124.42H403.91L396.67 113.43V124.42H393.44V108.25H396.67L403.91 119.34V108.25H407.14V124.42Z" fill="#003F88"/>
<path d="M422.85 122.28C422.44 122.98 421.83 123.53 421.02 123.95C420.21 124.37 419.23 124.58 418.07 124.58C416.92 124.58 415.9 124.39 415 124C414.1 123.61 413.38 123.05 412.84 122.32C412.3 121.59 411.99 120.73 411.91 119.75H415.35C415.43 120.41 415.69 120.95 416.14 121.39C416.59 121.83 417.19 122.04 417.94 122.04C418.61 122.04 419.13 121.86 419.49 121.5C419.85 121.14 420.03 120.68 420.03 120.11C420.03 119.61 419.88 119.19 419.59 118.86C419.3 118.53 418.93 118.27 418.49 118.07C418.05 117.87 417.44 117.64 416.66 117.38C415.65 117.04 414.83 116.71 414.19 116.38C413.55 116.05 413 115.58 412.55 114.95C412.1 114.32 411.87 113.51 411.87 112.5C411.87 111.11 412.37 110.01 413.37 109.21C414.37 108.41 415.7 108.01 417.34 108.01C419.05 108.01 420.41 108.42 421.43 109.25C422.45 110.07 423.02 111.17 423.16 112.55H419.68C419.59 111.97 419.34 111.49 418.95 111.12C418.55 110.75 418.01 110.56 417.32 110.56C416.72 110.56 416.24 110.72 415.88 111.03C415.51 111.34 415.33 111.8 415.33 112.39C415.33 112.86 415.47 113.26 415.75 113.57C416.03 113.88 416.39 114.14 416.83 114.34C417.27 114.54 417.86 114.76 418.6 115C419.64 115.37 420.48 115.71 421.13 116.03C421.78 116.35 422.33 116.83 422.79 117.47C423.25 118.11 423.48 118.95 423.48 119.99C423.47 120.82 423.26 121.58 422.85 122.28Z" fill="#003F88"/>
<path d="M431.37 110.81V115H437.1V117.47H431.37V121.82H437.78V124.41H428.14V108.24H437.78V110.81H431.37Z" fill="#003F88"/>
<path d="M450.89 124.42L447.11 118.12H445.69V124.42H442.46V108.25H448.62C450.5 108.25 451.93 108.71 452.91 109.62C453.89 110.54 454.39 111.74 454.39 113.24C454.39 114.46 454.05 115.48 453.37 116.31C452.69 117.13 451.71 117.68 450.43 117.96L454.46 124.42H450.89ZM445.69 115.9H448.35C450.2 115.9 451.12 115.08 451.12 113.45C451.12 112.67 450.89 112.06 450.44 111.63C449.99 111.2 449.29 110.98 448.34 110.98H445.68V115.9H445.69Z" fill="#003F88"/>
<path d="M462.09 108.25V124.42H458.86V108.25H462.09Z" fill="#003F88"/>
<path d="M470.54 110.81V115H476.27V117.47H470.54V121.82H476.95V124.41H467.31V108.24H476.95V110.81H470.54Z" fill="#003F88"/>
<path d="M490.05 124.42L486.27 118.12H484.85V124.42H481.62V108.25H487.78C489.66 108.25 491.09 108.71 492.07 109.62C493.05 110.54 493.55 111.74 493.55 113.24C493.55 114.46 493.21 115.48 492.53 116.31C491.85 117.13 490.87 117.68 489.59 117.96L493.62 124.42H490.05ZM484.85 115.9H487.51C489.36 115.9 490.28 115.08 490.28 113.45C490.28 112.67 490.05 112.06 489.6 111.63C489.15 111.2 488.45 110.98 487.5 110.98H484.84V115.9H484.85Z" fill="#003F88"/>
<path d="M501.25 110.81V115H506.98V117.47H501.25V121.82H507.66V124.41H498.02V108.24H507.66V110.81H501.25Z" fill="#003F88"/>
<path d="M526.04 124.42H522.81L515.57 113.43V124.42H512.34V108.25H515.57L522.81 119.34V108.25H526.04V124.42Z" fill="#003F88"/>
<path d="M533.94 121.05V124.42H530.46V121.05H533.94Z" fill="#003F88"/>
<path d="M548.89 110.81V115H554.62V117.47H548.89V121.82H555.3V124.41H545.66V108.24H555.3V110.81H548.89Z" fill="#003F88"/>
<path d="M570.01 108.25V110.82H563.21V115.15H568.66V117.62H563.21V124.42H559.98V108.25H570.01Z" fill="#003F88"/>
<path d="M584.51 108.25V110.82H577.71V115.15H583.16V117.62H577.71V124.42H574.48V108.25H584.51Z" fill="#003F88"/>
<path d="M592.21 108.25V124.42H588.98V108.25H592.21Z" fill="#003F88"/>
<path d="M600.54 121.81H608.08V124.42H596.97V121.95L604.35 110.84H597.09V108.25H607.99V110.72L600.54 121.81Z" fill="#003F88"/>
<path d="M616.07 108.25V124.42H612.84V108.25H616.07Z" fill="#003F88"/>
<path d="M624.52 110.81V115H630.25V117.47H624.52V121.82H630.93V124.41H621.29V108.24H630.93V110.81H624.52Z" fill="#003F88"/>
<path d="M649.31 124.42H646.08L638.84 113.43V124.42H635.61V108.25H638.84L646.08 119.34V108.25H649.31V124.42Z" fill="#003F88"/>
<path d="M665.52 108.25V110.82H661.05V124.43H657.82V110.82H653.38V108.25H665.52Z" fill="#003F88"/>
<path d="M679.15 108.25L683.48 121.05L687.83 108.25H691.29L685.56 124.42H681.41L675.68 108.25H679.15Z" fill="#003F88"/>
<path d="M698.55 110.81V115H704.28V117.47H698.55V121.82H704.96V124.41H695.32V108.24H704.96V110.81H698.55Z" fill="#003F88"/>
<path d="M718.07 124.42L714.29 118.12H712.87V124.42H709.64V108.25H715.8C717.68 108.25 719.11 108.71 720.09 109.62C721.07 110.54 721.57 111.74 721.57 113.24C721.57 114.46 721.23 115.48 720.55 116.31C719.87 117.13 718.89 117.68 717.61 117.96L721.64 124.42H718.07ZM712.87 115.9H715.53C717.38 115.9 718.3 115.08 718.3 113.45C718.3 112.67 718.07 112.06 717.62 111.63C717.17 111.2 716.47 110.98 715.52 110.98H712.86V115.9H712.87Z" fill="#003F88"/>
<path d="M732.31 116.19L739.16 124.41H735.24L729.26 117.01V124.41H726.03V108.24H729.26V115.5L735.26 108.24H739.15L732.31 116.19Z" fill="#003F88"/>
<path d="M753.09 121.16H746.61L745.46 124.41H742.05L748.01 108.42H751.7L757.63 124.41H754.22L753.09 121.16ZM752.22 118.71L749.84 111.88L747.46 118.71H752.22Z" fill="#003F88"/>
<path d="M764.77 108.25V117.73C764.77 119 765.05 119.95 765.61 120.58C766.17 121.21 766.97 121.53 768.03 121.53C769.07 121.53 769.87 121.21 770.42 120.58C770.98 119.95 771.26 119 771.26 117.73V108.25H774.47V117.73C774.47 119.23 774.19 120.49 773.63 121.52C773.07 122.55 772.3 123.32 771.32 123.82C770.34 124.32 769.22 124.58 767.96 124.58C766.02 124.58 764.47 124 763.31 122.84C762.15 121.68 761.57 119.98 761.57 117.73V108.25H764.77Z" fill="#003F88"/>
<path d="M789.62 108.25V110.82H782.82V115.15H788.27V117.62H782.82V124.42H779.59V108.25H789.62Z" fill="#003F88"/>
<path d="M797.32 110.81V115H803.05V117.47H797.32V121.82H803.73V124.41H794.09V108.24H803.73V110.81H797.32Z" fill="#003F88"/>
<path d="M822.1 124.42H818.87L811.63 113.43V124.42H808.4V108.25H811.63L818.87 119.34V108.25H822.1V124.42Z" fill="#003F88"/>
<path d="M830 121.05V124.42H826.52V121.05H830Z" fill="#003F88"/>
</svg>
