<svg width="826" height="422" viewBox="0 0 826 422" fill="none" xmlns="http://www.w3.org/2000/svg">
<path d="M466.85 84.55C449 90.76 430.78 97.86 412.65 105.97L406.16 87.66L401.58 74.71L375.13 0H439.14L457.18 55.05L461.45 68.09L466.85 84.55Z" fill="#003F88"/>
<path d="M261.9 168.49L235.35 247.38H172.4C172.39 247.39 203.99 210.76 261.9 168.49Z" fill="#F9A602"/>
<path d="M420.69 247.39H357.03L330.48 168.5L325.86 154.76L318.03 131.5L313.56 118.21L296.19 66.6L269.33 146.39C230.57 173.12 201.71 198.6 183.74 215.95L261.72 0H331.36L364.29 91.21L368.98 104.18L376.09 123.87L380.84 137.05L420.69 247.39Z" fill="#F9A602"/>
<path d="M653.33 43.09C653.33 43.09 565.67 50.18 466.85 84.55C449 90.76 430.78 97.86 412.65 105.97C400.38 111.46 388.14 117.42 376.09 123.87C358.84 133.11 341.96 143.36 325.86 154.76C290.48 179.79 258.86 210.28 235.35 247.39H172.4C172.89 246.82 204.45 210.44 261.9 168.5C278.49 156.39 297.24 143.82 318.03 131.51C333.85 122.14 350.85 112.93 368.98 104.19C380.9 98.44 393.3 92.9 406.17 87.66C423.74 80.51 442.18 73.9 461.46 68.09C518.45 50.9 582.75 40.56 653.33 43.09Z" fill="#F9A602"/>
<path d="M653.33 52.44C653.33 52.44 650.14 54.11 644.89 57.76C627.95 69.51 589.52 101.79 567.21 164.81L537.98 247.38H462.72L417.29 119.03C435.68 110.73 453.86 103.64 471.14 97.6L500.36 186.76C505.31 154.75 519.88 125.94 541.14 103.47C557.52 86.15 577.86 72.59 600.82 64.25C600.82 64.25 600.82 64.25 600.83 64.25C607.65 61.77 614.71 59.75 621.96 58.22C636.51 55.17 648.24 52.92 653.33 52.44Z" fill="#003F88"/>
<path d="M89.67 374.54H54.75L52.66 350.77H25.06L14.47 374.54H0L44.02 279.6H79.38L89.67 374.54ZM29.99 339.86H51.63L48.2 299.19L29.99 339.86Z" fill="#003F88"/>
<path d="M134.43 340.61C133.93 342.8 133.53 344.7 133.24 346.29C132.94 347.89 132.79 349.38 132.79 350.77C132.79 354.26 134.01 357.05 136.45 359.14C138.89 361.23 142.49 362.28 147.27 362.28C150.75 362.28 153.61 361.68 155.85 360.49C158.09 359.29 159.93 357.7 161.37 355.71C162.81 353.72 163.96 351.43 164.8 348.83C165.64 346.24 166.37 343.5 166.96 340.61L179.64 279.61H193.22L180.24 340.91C179.24 345.69 177.8 350.18 175.91 354.37C174.02 358.56 171.31 362.24 167.78 365.43C164.25 368.62 159.7 371.14 154.13 372.98C148.56 374.82 141.65 375.75 133.39 375.75C121.95 375.75 113.49 373.88 108.02 370.14C102.55 366.4 99.8101 360.65 99.8101 352.87C99.8101 349.38 100.26 344.95 101.15 339.56C102.05 334.18 103.19 328.35 104.58 322.07L113.68 279.61H147.55L134.43 340.61Z" fill="#003F88"/>
<path d="M279.47 290.97H255.45L237.69 374.55H205.46L223.22 290.97H199.5L202.19 279.61H282.02L279.47 290.97Z" fill="#003F88"/>
<path d="M330.05 278.11C338.6 278.11 345.54 279.21 350.86 281.4C356.18 283.59 360.38 286.98 363.47 291.57C365.46 294.66 367 298.15 368.1 302.04C369.19 305.93 369.74 310.41 369.74 315.5C369.74 319.89 369.34 324.27 368.55 328.66C367.75 333.05 366.63 337.26 365.19 341.29C363.75 345.33 362.01 349.12 359.97 352.65C357.93 356.19 355.67 359.3 353.18 361.99C348.5 367.07 343.11 370.64 336.99 372.68C330.87 374.72 323.34 375.75 314.38 375.75C305.73 375.75 298.76 374.85 293.49 373.06C288.22 371.27 284.04 368.38 280.96 364.39C278.77 361.6 277.06 358.06 275.81 353.77C274.57 349.49 273.95 344.1 273.95 337.62C273.95 326.56 275.91 316.67 279.84 307.94C283.77 299.22 289.36 292.32 296.63 287.23C301.01 284.14 305.88 281.85 311.25 280.35C316.62 278.86 322.89 278.11 330.05 278.11ZM313.19 365.27C315.48 365.27 317.64 364.25 319.68 362.21C321.72 360.17 323.61 357.43 325.35 353.99C327.09 350.55 328.68 346.64 330.12 342.25C331.56 337.86 332.78 333.33 333.78 328.64C334.77 323.96 335.54 319.3 336.09 314.66C336.64 310.03 336.91 305.82 336.91 302.03C336.91 296.85 336.39 293.28 335.34 291.34C334.3 289.4 332.78 288.42 330.79 288.42C328.5 288.42 326.31 289.42 324.22 291.41C322.13 293.41 320.17 296.07 318.33 299.41C316.49 302.75 314.85 306.59 313.41 310.92C311.97 315.26 310.72 319.72 309.68 324.3C308.64 328.89 307.84 333.42 307.29 337.91C306.74 342.39 306.47 346.53 306.47 350.32C306.47 356 307.09 359.91 308.34 362.06C309.58 364.2 311.2 365.27 313.19 365.27Z" fill="#003F88"/>
<path d="M380.33 279.61H414.35L419.42 343.9L450.46 279.61H465.23L421.06 374.55H385.85L380.33 279.61Z" fill="#F9A602"/>
<path d="M474.93 279.61H537.75L535.36 290.97H504.93L498.66 319.82H524.18L521.79 331.03H496.28L489.42 363.02H519.86L517.62 374.53H454.8L474.93 279.61Z" fill="#F9A602"/>
<path d="M609.37 374.54H574.45L557.89 305.92L543.27 374.54H529.84L549.98 279.6H585.64L601.31 349.12L616.08 279.6H629.81L609.37 374.54Z" fill="#F9A602"/>
<path d="M625.94 374.54L646.08 279.6H686.22C692.39 279.6 697.78 280.22 702.41 281.47C707.03 282.72 710.86 284.79 713.9 287.67C716.93 290.56 719.22 294.35 720.76 299.03C722.3 303.72 723.07 309.45 723.07 316.22C723.07 323.5 722.15 330.62 720.31 337.6C718.47 344.58 715.41 350.81 711.13 356.29C706.85 361.77 701.26 366.18 694.34 369.52C687.43 372.86 678.9 374.53 668.75 374.53H625.94V374.54ZM666.82 364.08C670.1 364.08 673.01 362.71 675.55 359.97C678.09 357.23 680.27 353.74 682.12 349.5C683.96 345.26 685.5 340.58 686.75 335.45C687.99 330.32 688.99 325.36 689.73 320.57C690.48 315.79 691.02 311.5 691.37 307.71C691.72 303.92 691.89 301.23 691.89 299.64C691.89 296.55 691.27 294.13 690.02 292.39C688.78 290.65 686.61 289.77 683.53 289.77H676.37L660.4 364.08H666.82Z" fill="#F9A602"/>
<path d="M786.04 278.11C794.6 278.11 801.53 279.21 806.86 281.4C812.18 283.59 816.38 286.98 819.47 291.57C821.46 294.66 823 298.15 824.1 302.04C825.19 305.93 825.74 310.41 825.74 315.5C825.74 319.89 825.34 324.27 824.55 328.66C823.75 333.05 822.63 337.26 821.19 341.29C819.75 345.33 818.01 349.12 815.97 352.65C813.93 356.19 811.67 359.3 809.18 361.99C804.5 367.07 799.11 370.64 792.99 372.68C786.87 374.72 779.34 375.75 770.39 375.75C761.73 375.75 754.77 374.85 749.5 373.06C744.23 371.27 740.05 368.38 736.97 364.39C734.78 361.6 733.06 358.06 731.82 353.77C730.58 349.49 729.95 344.1 729.95 337.62C729.95 326.56 731.91 316.67 735.85 307.94C739.78 299.22 745.37 292.32 752.64 287.23C757.02 284.14 761.89 281.85 767.26 280.35C772.61 278.86 778.88 278.11 786.04 278.11ZM769.18 365.27C771.47 365.27 773.63 364.25 775.67 362.21C777.71 360.17 779.6 357.43 781.34 353.99C783.08 350.55 784.67 346.64 786.11 342.25C787.55 337.86 788.77 333.33 789.77 328.64C790.76 323.96 791.53 319.3 792.08 314.66C792.63 310.03 792.9 305.82 792.9 302.03C792.9 296.85 792.38 293.28 791.33 291.34C790.29 289.4 788.77 288.42 786.78 288.42C784.49 288.42 782.3 289.42 780.21 291.41C778.12 293.41 776.16 296.07 774.32 299.41C772.48 302.75 770.84 306.59 769.4 310.92C767.96 315.26 766.71 319.72 765.67 324.3C764.63 328.89 763.83 333.42 763.28 337.91C762.73 342.39 762.46 346.53 762.46 350.32C762.46 356 763.08 359.91 764.33 362.06C765.57 364.2 767.19 365.27 769.18 365.27Z" fill="#F9A602"/>
<path d="M5.68021 401.6V407.72H14.0402V411.33H5.68021V417.68H15.0402V421.46H0.970215V397.86H15.0402V401.6H5.68021Z" fill="#003F88"/>
<path d="M26.5703 397.86V421.46H21.8604V397.86H26.5703Z" fill="#003F88"/>
<path d="M54.1704 421.45H49.4604L38.9004 405.41V421.45H34.1904V397.85H38.9004L49.4604 414.03V397.85H54.1704V421.45Z" fill="#003F88"/>
<path d="M76.43 397.86V401.6H66.5V407.92H74.45V411.53H66.5V421.46H61.79V397.86H76.43Z" fill="#003F88"/>
<path d="M97.3204 416.71H87.8605L86.1905 421.46H81.2104L89.9005 398.13H95.2805L103.94 421.46H98.9604L97.3204 416.71ZM96.0505 413.13L92.5704 403.17L89.0905 413.13H96.0505Z" fill="#003F88"/>
<path d="M127.81 399.9C129.75 401.42 131.03 403.48 131.65 406.08H126.7C126.19 404.81 125.39 403.81 124.31 403.07C123.23 402.33 121.93 401.97 120.42 401.97C119.17 401.97 118.05 402.28 117.04 402.91C116.04 403.53 115.26 404.43 114.7 405.58C114.14 406.74 113.86 408.1 113.86 409.66C113.86 411.2 114.14 412.55 114.7 413.7C115.26 414.86 116.04 415.75 117.04 416.37C118.04 416.99 119.17 417.31 120.42 417.31C121.93 417.31 123.23 416.94 124.31 416.21C125.39 415.47 126.19 414.47 126.7 413.2H131.65C131.03 415.81 129.75 417.87 127.81 419.38C125.87 420.9 123.43 421.65 120.49 421.65C118.24 421.65 116.25 421.14 114.52 420.13C112.79 419.12 111.46 417.7 110.51 415.87C109.56 414.04 109.09 411.97 109.09 409.65C109.09 407.31 109.56 405.23 110.51 403.4C111.46 401.57 112.79 400.15 114.5 399.14C116.22 398.13 118.21 397.62 120.48 397.62C123.43 397.62 125.87 398.38 127.81 399.9Z" fill="#003F88"/>
<path d="M158.09 397.86V421.46H153.34V411.2H143.25V421.46H138.54V397.86H143.25V407.42H153.34V397.86H158.09Z" fill="#003F88"/>
<path d="M181.05 397.86V421.46H176.34V397.86H181.05Z" fill="#003F88"/>
<path d="M208.66 421.45H203.95L193.39 405.41V421.45H188.68V397.85H193.39L203.95 414.03V397.85H208.66V421.45Z" fill="#003F88"/>
<path d="M231.59 418.33C230.99 419.34 230.1 420.16 228.92 420.77C227.74 421.38 226.3 421.69 224.61 421.69C222.94 421.69 221.45 421.41 220.13 420.84C218.82 420.27 217.76 419.45 216.97 418.38C216.18 417.31 215.73 416.06 215.62 414.64H220.63C220.74 415.6 221.13 416.39 221.78 417.03C222.44 417.67 223.31 417.98 224.4 417.98C225.38 417.98 226.13 417.72 226.66 417.19C227.18 416.67 227.45 415.99 227.45 415.17C227.45 414.43 227.24 413.83 226.81 413.35C226.39 412.87 225.85 412.49 225.21 412.2C224.56 411.91 223.67 411.58 222.54 411.2C221.07 410.71 219.87 410.23 218.93 409.75C217.99 409.27 217.2 408.58 216.54 407.66C215.88 406.75 215.55 405.55 215.55 404.08C215.55 402.05 216.28 400.45 217.74 399.28C219.2 398.11 221.13 397.52 223.54 397.52C226.04 397.52 228.02 398.12 229.51 399.32C231 400.52 231.83 402.13 232.03 404.13H226.95C226.82 403.28 226.46 402.59 225.88 402.04C225.3 401.49 224.51 401.22 223.51 401.22C222.64 401.22 221.94 401.45 221.4 401.91C220.86 402.37 220.6 403.03 220.6 403.9C220.6 404.59 220.81 405.16 221.22 405.62C221.63 406.08 222.16 406.45 222.79 406.74C223.43 407.03 224.29 407.35 225.38 407.71C226.9 408.24 228.13 408.75 229.07 409.21C230.02 409.68 230.82 410.38 231.49 411.32C232.16 412.26 232.49 413.48 232.49 415C232.49 416.21 232.19 417.32 231.59 418.33Z" fill="#003F88"/>
<path d="M244.02 401.6V407.72H252.38V411.33H244.02V417.68H253.38V421.46H239.31V397.86H253.38V401.6H244.02Z" fill="#003F88"/>
<path d="M272.5 421.45L266.99 412.26H264.92V421.45H260.21V397.85H269.2C271.94 397.85 274.03 398.52 275.47 399.86C276.91 401.2 277.63 402.96 277.63 405.14C277.63 406.92 277.13 408.42 276.14 409.62C275.15 410.82 273.72 411.62 271.84 412.03L277.72 421.46H272.5V421.45ZM264.91 409.02H268.79C271.49 409.02 272.83 407.83 272.83 405.44C272.83 404.3 272.5 403.42 271.84 402.78C271.18 402.15 270.16 401.83 268.78 401.83H264.9V409.02H264.91Z" fill="#003F88"/>
<path d="M288.84 397.86V421.46H284.13V397.86H288.84Z" fill="#003F88"/>
<path d="M301.18 401.6V407.72H309.54V411.33H301.18V417.68H310.54V421.46H296.47V397.86H310.54V401.6H301.18Z" fill="#003F88"/>
<path d="M329.65 421.45L324.14 412.26H322.07V421.45H317.36V397.85H326.35C329.09 397.85 331.18 398.52 332.62 399.86C334.06 401.2 334.78 402.96 334.78 405.14C334.78 406.92 334.28 408.42 333.29 409.62C332.3 410.82 330.87 411.62 328.99 412.03L334.87 421.46H329.65V421.45ZM322.07 409.02H325.95C328.65 409.02 329.99 407.83 329.99 405.44C329.99 404.3 329.66 403.42 329 402.78C328.34 402.15 327.32 401.83 325.94 401.83H322.06V409.02H322.07Z" fill="#003F88"/>
<path d="M346 401.6V407.72H354.36V411.33H346V417.68H355.36V421.46H341.29V397.86H355.36V401.6H346Z" fill="#003F88"/>
<path d="M382.16 421.45H377.45L366.89 405.41V421.45H362.18V397.85H366.89L377.45 414.03V397.85H382.16V421.45Z" fill="#003F88"/>
<path d="M393.69 416.54V421.45H388.61V416.54H393.69Z" fill="#003F88"/>
<path d="M415.52 401.6V407.72H423.88V411.33H415.52V417.68H424.88V421.46H410.81V397.86H424.88V401.6H415.52Z" fill="#003F88"/>
<path d="M446.34 397.86V401.6H436.41V407.92H444.36V411.53H436.41V421.46H431.7V397.86H446.34Z" fill="#003F88"/>
<path d="M467.49 397.86V401.6H457.56V407.92H465.51V411.53H457.56V421.46H452.85V397.86H467.49Z" fill="#003F88"/>
<path d="M478.72 397.86V421.46H474.01V397.86H478.72Z" fill="#003F88"/>
<path d="M490.89 417.64H501.89V421.45H485.68V417.84L496.44 401.63H485.84V397.85H501.75V401.46L490.89 417.64Z" fill="#003F88"/>
<path d="M513.55 397.86V421.46H508.84V397.86H513.55Z" fill="#003F88"/>
<path d="M525.89 401.6V407.72H534.25V411.33H525.89V417.68H535.25V421.46H521.18V397.86H535.25V401.6H525.89Z" fill="#003F88"/>
<path d="M562.05 421.45H557.34L546.78 405.41V421.45H542.07V397.85H546.78L557.34 414.03V397.85H562.05V421.45Z" fill="#003F88"/>
<path d="M585.71 397.86V401.6H579.19V421.45H574.48V401.6H568V397.86H585.71Z" fill="#003F88"/>
<path d="M605.6 397.86L611.92 416.54L618.27 397.86H623.32L614.96 421.46H608.91L600.55 397.86H605.6Z" fill="#003F88"/>
<path d="M633.91 401.6V407.72H642.27V411.33H633.91V417.68H643.27V421.46H629.2V397.86H643.27V401.6H633.91Z" fill="#003F88"/>
<path d="M662.39 421.45L656.88 412.26H654.81V421.45H650.1V397.85H659.09C661.83 397.85 663.92 398.52 665.36 399.86C666.8 401.2 667.52 402.96 667.52 405.14C667.52 406.92 667.02 408.42 666.03 409.62C665.04 410.82 663.61 411.62 661.73 412.03L667.61 421.46H662.39V421.45ZM654.8 409.02H658.68C661.38 409.02 662.72 407.83 662.72 405.44C662.72 404.3 662.39 403.42 661.73 402.78C661.07 402.15 660.05 401.83 658.67 401.83H654.79V409.02H654.8Z" fill="#003F88"/>
<path d="M683.18 409.46L693.17 421.46H687.45L678.73 410.66V421.46H674.02V397.86H678.73V408.46L687.49 397.86H693.17L683.18 409.46Z" fill="#003F88"/>
<path d="M713.49 416.71H704.03L702.36 421.46H697.38L706.07 398.13H711.45L720.11 421.46H715.13L713.49 416.71ZM712.22 413.13L708.74 403.17L705.26 413.13H712.22Z" fill="#003F88"/>
<path d="M730.54 397.86V411.7C730.54 413.55 730.95 414.94 731.76 415.86C732.57 416.78 733.75 417.25 735.29 417.25C736.81 417.25 737.97 416.79 738.78 415.86C739.59 414.94 740 413.55 740 411.7V397.86H744.68V411.7C744.68 413.88 744.27 415.73 743.46 417.23C742.65 418.73 741.52 419.85 740.08 420.59C738.64 421.33 737.01 421.69 735.18 421.69C732.35 421.69 730.09 420.84 728.39 419.15C726.7 417.46 725.85 414.97 725.85 411.7V397.86H730.54Z" fill="#003F88"/>
<path d="M766.8 397.86V401.6H756.87V407.92H764.82V411.53H756.87V421.46H752.16V397.86H766.8Z" fill="#003F88"/>
<path d="M778.03 401.6V407.72H786.39V411.33H778.03V417.68H787.39V421.46H773.32V397.86H787.39V401.6H778.03Z" fill="#003F88"/>
<path d="M814.2 421.45H809.49L798.93 405.41V421.45H794.22V397.85H798.93L809.49 414.03V397.85H814.2V421.45Z" fill="#003F88"/>
<path d="M825.73 416.54V421.45H820.65V416.54H825.73Z" fill="#003F88"/>
</svg>
