<svg xmlns="http://www.w3.org/2000/svg" version="1.1" xmlns:xlink="http://www.w3.org/1999/xlink" width="1000" height="1000"><g clip-path="url(#SvgjsClipPath1012)"><rect width="1000" height="1000" fill="#ffffff"></rect><g transform="matrix(0.9067357512953368,0,0,0.9067357512953368,150,320.01295336787564)"><svg xmlns="http://www.w3.org/2000/svg" width="772" height="397" viewBox="0 0 772 397" fill="none"><path d="M472.21 135.59C443.58 145.55 414.36 156.93 385.29 169.94L374.89 140.57L367.54 119.81L325.13 0H427.78L456.7 88.28L463.56 109.19L472.21 135.59Z" fill="#003F88"></path><path d="M143.54 270.21L100.96 396.72H0C0 396.72 50.68 337.98 143.54 270.21Z" fill="#F9A602"></path><path d="M398.18 396.72H296.1L253.52 270.21L246.11 248.18L233.56 210.88L226.39 189.57L198.54 106.81L155.47 234.76C93.32 277.62 47.03 318.48 18.21 346.31L143.26 0H254.93L307.74 146.27L315.25 167.08L326.65 198.65L334.27 219.78L398.18 396.72Z" fill="#F9A602"></path><path d="M771.26 69.1C771.26 69.1 630.68 80.47 472.21 135.59C443.58 145.55 414.36 156.93 385.29 169.94C365.61 178.75 345.99 188.29 326.66 198.64C299 213.45 271.93 229.9 246.11 248.17C189.37 288.31 138.66 337.2 100.96 396.71H0C0 396.71 9.76585e-06 396.71 0.0100098 396.7C0.79001 395.79 51.4 337.44 143.54 270.19C170.14 250.76 200.21 230.6 233.55 210.86C258.92 195.84 286.18 181.06 315.25 167.05C334.36 157.83 354.24 148.95 374.88 140.55C403.05 129.08 432.62 118.49 463.55 109.16C554.95 81.62 658.07 65.05 771.26 69.1Z" fill="#F9A602"></path><path d="M771.26 84.1C771.26 84.1 766.15 86.78 757.72 92.63C757.72 92.63 757.71 92.62 757.71 92.63C730.54 111.47 668.91 163.24 633.13 264.31L586.25 396.72H465.55L392.69 190.89C422.18 177.58 451.34 166.2 479.05 156.53L525.9 299.52C533.83 248.19 557.21 201.98 591.3 165.95C617.56 138.17 650.19 116.44 687 103.05C687.01 103.05 687.01 103.04 687.01 103.05C697.95 99.06 709.27 95.83 720.89 93.38C744.28 88.47 763.09 84.87 771.26 84.1Z" fill="#003F88"></path></svg></g></g><defs><clipPath id="SvgjsClipPath1012"><rect width="1000" height="1000" x="0" y="0" rx="350" ry="350"></rect></clipPath></defs></svg>